<svg width="234" height="31" viewBox="0 0 234 31" fill="none" xmlns="http://www.w3.org/2000/svg">
<path d="M139.195 11.8317V9.89383H141.676V7.14211C141.676 5.1526 142.257 3.62817 143.42 2.56883C144.246 1.84537 145.28 1.48364 146.52 1.48364H146.791V3.42147H146.443C144.608 3.55066 143.691 4.79087 143.691 7.14211V9.89383H147.635V11.8317H143.691V30.162H141.676V11.8317H139.195Z" fill="#D9D9D9"/>
<path d="M150.946 5.6306C150.946 5.06217 151.23 4.66168 151.799 4.42914C151.954 4.37747 152.109 4.35163 152.264 4.35163C152.858 4.35163 153.259 4.63585 153.465 5.20428C153.517 5.3593 153.543 5.50141 153.543 5.6306C153.543 6.22487 153.259 6.62535 152.69 6.83205C152.535 6.88373 152.393 6.90957 152.264 6.90957C151.67 6.90957 151.256 6.63827 151.024 6.09568C150.972 5.94065 150.946 5.78562 150.946 5.6306ZM151.256 30.162V9.89383H153.272V30.162H151.256Z" fill="#D9D9D9"/>
<path d="M155.985 11.8317L155.946 9.89383H158.426V1.36737H160.442V9.89383H162.922V11.8704H160.442V23.9222C160.442 26.0667 161.165 27.3973 162.612 27.9141C163.206 28.095 163.891 28.1854 164.666 28.1854H164.821V30.162H164.472C161.346 30.1361 159.447 28.9218 158.775 26.5189C158.542 25.6921 158.426 24.7102 158.426 23.5734V11.8317H155.985Z" fill="#D9D9D9"/>
<path d="M168.385 30.162V15.357C168.385 14.1167 168.941 12.9153 170.052 11.7526C171.369 10.4349 172.984 9.77601 174.896 9.77601V11.7914C173.475 11.7914 172.274 12.3469 171.292 13.4579C170.698 14.1555 170.4 14.866 170.4 15.5895V30.162H168.385ZM176.563 11.7914V9.77601C178.888 9.77601 180.723 10.732 182.066 12.644C182.738 13.6 183.074 14.5043 183.074 15.357V30.162H181.02V15.5895C181.02 14.7627 180.593 13.9359 179.741 13.1091C178.836 12.2306 177.777 11.7914 176.563 11.7914Z" fill="#D9D9D9"/>
<path d="M186.097 24.6198V15.357C186.123 14.1426 186.691 12.9799 187.802 11.8689C189.068 10.5511 190.631 9.89228 192.492 9.89228V11.7914C191.019 11.7914 189.805 12.4502 188.849 13.7679C188.358 14.4397 188.112 15.0727 188.112 15.667V18.7288H198.654V15.667C198.654 14.3751 198.021 13.3287 196.755 12.5277C195.954 12.011 195.127 11.7526 194.275 11.7526V9.89228C196.006 9.89228 197.556 10.5253 198.925 11.7914C200.062 12.8765 200.644 14.0522 200.669 15.3182V20.6666H188.112V24.6198C188.112 25.4208 188.603 26.2476 189.585 27.1002C190.515 27.8753 191.497 28.2629 192.53 28.2629V30.162C190.257 30.162 188.461 29.2318 187.143 27.3715C186.446 26.3897 186.097 25.4724 186.097 24.6198ZM194.275 30.162V28.1466C195.954 28.1466 197.272 27.4361 198.228 26.015C198.512 25.5758 198.706 25.1624 198.809 24.7748L200.708 25.4337C200.14 27.3198 198.99 28.6763 197.259 29.5031C196.329 29.9424 195.334 30.162 194.275 30.162Z" fill="#D9D9D9"/>
<path d="M202.995 24.8136L204.933 24.4648C204.933 25.8083 205.643 26.9064 207.064 27.7591C207.839 28.1983 208.602 28.4309 209.351 28.4567V30.3558C207.103 30.3558 205.346 29.516 204.08 27.8366C203.357 26.8548 202.995 25.8471 202.995 24.8136ZM203.15 15.7833C203.15 13.432 204.196 11.7009 206.289 10.5899C207.271 10.0731 208.266 9.81476 209.273 9.81476V11.7526C208.059 11.7526 207.013 12.2564 206.134 13.2641C205.462 14.0134 205.126 14.8531 205.126 15.7833C205.126 16.6876 205.759 17.3852 207.025 17.8761C207.516 18.0828 209.467 18.5996 212.878 19.4264C213.059 19.4781 213.227 19.5168 213.382 19.5427C216.095 20.2403 217.541 21.6355 217.722 23.7284C217.722 23.8576 217.722 23.9868 217.722 24.116C217.722 26.4155 216.779 28.1466 214.893 29.3093C213.73 30.007 212.426 30.3558 210.979 30.3558V28.4567C212.322 28.4567 213.498 27.9787 214.505 27.0227C215.332 26.2217 215.746 25.2657 215.746 24.1547C215.746 22.992 214.673 22.0748 212.529 21.403C212.4 21.3513 210.759 20.9508 207.607 20.2015C207.374 20.1499 207.168 20.0982 206.987 20.0465C204.713 19.3747 203.447 18.1862 203.189 16.4809C203.163 16.2484 203.15 16.0158 203.15 15.7833ZM210.94 11.7914V9.81476C213.11 9.81476 214.841 10.6287 216.133 12.2564C216.96 13.2641 217.373 14.3234 217.373 15.4345L215.436 15.7445C215.436 14.2201 214.596 13.0703 212.916 12.2952C212.193 11.9593 211.534 11.7914 210.94 11.7914Z" fill="#D9D9D9"/>
<path d="M219.273 24.8136L221.21 24.4648C221.21 25.8083 221.921 26.9064 223.342 27.7591C224.117 28.1983 224.879 28.4309 225.629 28.4567V30.3558C223.381 30.3558 221.624 29.516 220.358 27.8366C219.634 26.8548 219.273 25.8471 219.273 24.8136ZM219.428 15.7833C219.428 13.432 220.474 11.7009 222.567 10.5899C223.549 10.0731 224.543 9.81476 225.551 9.81476V11.7526C224.337 11.7526 223.29 12.2564 222.412 13.2641C221.74 14.0134 221.404 14.8531 221.404 15.7833C221.404 16.6876 222.037 17.3852 223.303 17.8761C223.794 18.0828 225.745 18.5996 229.155 19.4264C229.336 19.4781 229.504 19.5168 229.659 19.5427C232.372 20.2403 233.819 21.6355 234 23.7284C234 23.8576 234 23.9868 234 24.116C234 26.4155 233.057 28.1466 231.171 29.3093C230.008 30.007 228.703 30.3558 227.256 30.3558V28.4567C228.6 28.4567 229.776 27.9787 230.783 27.0227C231.61 26.2217 232.023 25.2657 232.023 24.1547C232.023 22.992 230.951 22.0748 228.807 21.403C228.677 21.3513 227.037 20.9508 223.885 20.2015C223.652 20.1499 223.445 20.0982 223.264 20.0465C220.991 19.3747 219.725 18.1862 219.466 16.4809C219.441 16.2484 219.428 16.0158 219.428 15.7833ZM227.218 11.7914V9.81476C229.388 9.81476 231.119 10.6287 232.411 12.2564C233.238 13.2641 233.651 14.3234 233.651 15.4345L231.713 15.7445C231.713 14.2201 230.874 13.0703 229.194 12.2952C228.471 11.9593 227.812 11.7914 227.218 11.7914Z" fill="#D9D9D9"/>
<path d="M46.6011 29.8249C46.3305 29.8249 46.1545 29.6845 46.0734 29.4037L37.7112 0.926762L37.6706 0.758259C37.6706 0.477422 37.8194 0.337003 38.1171 0.337003H43.2318C43.5295 0.337003 43.719 0.477422 43.8001 0.758259L49.199 21.3156C49.2261 21.3998 49.2667 21.4419 49.3208 21.4419C49.3749 21.4419 49.4155 21.3998 49.4426 21.3156L54.7603 0.758259C54.8415 0.477422 55.0309 0.337003 55.3286 0.337003H60.3215C60.4839 0.337003 60.6057 0.393171 60.6869 0.505506C60.7681 0.617841 60.7816 0.75826 60.7275 0.926762L52.2435 29.4037C52.1623 29.6845 51.9864 29.8249 51.7158 29.8249H46.6011Z" fill="#D9D9D9"/>
<path d="M64.7896 29.8249C64.6543 29.8249 64.5325 29.7828 64.4243 29.6986C64.3431 29.5862 64.3025 29.4599 64.3025 29.3194V0.842512C64.3025 0.702093 64.3431 0.589758 64.4243 0.505506C64.5325 0.393171 64.6543 0.337003 64.7896 0.337003H69.539C69.6743 0.337003 69.7826 0.393171 69.8638 0.505506C69.972 0.589758 70.0261 0.702093 70.0261 0.842512V29.3194C70.0261 29.4599 69.972 29.5862 69.8638 29.6986C69.7826 29.7828 69.6743 29.8249 69.539 29.8249H64.7896Z" fill="#D9D9D9"/>
<path d="M84.952 30.1619C82.8682 30.1619 81.028 29.7267 79.4314 28.8561C77.8347 27.9855 76.5898 26.7779 75.6968 25.2333C74.8308 23.6606 74.3978 21.8492 74.3978 19.799V10.3629C74.3978 8.31279 74.8308 6.50139 75.6968 4.9287C76.5898 3.35601 77.8347 2.14841 79.4314 1.30589C81.028 0.435297 82.8682 0 84.952 0C87.0087 0 88.8219 0.421256 90.3915 1.26377C91.9881 2.10628 93.2195 3.25772 94.0855 4.71807C94.9785 6.15034 95.425 7.75112 95.425 9.52039V9.81527C95.425 9.95569 95.3709 10.0821 95.2627 10.1944C95.1815 10.2787 95.0732 10.3208 94.9379 10.3208H90.1885C90.0532 10.3208 89.9314 10.2787 89.8232 10.1944C89.742 10.0821 89.7014 9.95569 89.7014 9.81527V9.68889C89.7014 8.39704 89.2684 7.31582 88.4024 6.44522C87.5364 5.54654 86.3863 5.0972 84.952 5.0972C83.4907 5.0972 82.3135 5.57462 81.4204 6.52947C80.5544 7.45623 80.1214 8.67788 80.1214 10.1944V19.9675C80.1214 21.4841 80.595 22.7198 81.5422 23.6746C82.4894 24.6014 83.6936 25.0648 85.155 25.0648C86.5622 25.0648 87.6853 24.6856 88.5242 23.9274C89.3631 23.141 89.7826 22.0598 89.7826 20.6837V18.788C89.7826 18.6476 89.715 18.5774 89.5796 18.5774H85.0332C84.8979 18.5774 84.7761 18.5353 84.6679 18.451C84.5867 18.3387 84.5461 18.2123 84.5461 18.0719V14.1963C84.5461 14.0559 84.5867 13.9436 84.6679 13.8593C84.7761 13.747 84.8979 13.6908 85.0332 13.6908H94.9379C95.0732 13.6908 95.1815 13.747 95.2627 13.8593C95.3709 13.9436 95.425 14.0559 95.425 14.1963V19.7569C95.425 21.8913 94.992 23.7448 94.1261 25.3175C93.2601 26.8902 92.0287 28.0978 90.4321 28.9403C88.8625 29.7547 87.0358 30.1619 84.952 30.1619Z" fill="#D9D9D9"/>
<path d="M100.309 29.8249C100.173 29.8249 100.051 29.7828 99.9432 29.6986C99.862 29.5862 99.8215 29.4599 99.8215 29.3194V0.842512C99.8215 0.702093 99.862 0.589758 99.9432 0.505506C100.051 0.393171 100.173 0.337003 100.309 0.337003H105.058C105.193 0.337003 105.302 0.393171 105.383 0.505506C105.491 0.589758 105.545 0.702093 105.545 0.842512V29.3194C105.545 29.4599 105.491 29.5862 105.383 29.6986C105.302 29.7828 105.193 29.8249 105.058 29.8249H100.309Z" fill="#D9D9D9"/>
<path d="M110.972 29.8249C110.837 29.8249 110.715 29.7828 110.607 29.6986C110.526 29.5862 110.485 29.4599 110.485 29.3194V0.842512C110.485 0.702093 110.526 0.589758 110.607 0.505506C110.715 0.393171 110.837 0.337003 110.972 0.337003H115.722C115.857 0.337003 115.965 0.393171 116.046 0.505506C116.155 0.589758 116.209 0.702093 116.209 0.842512V24.5171C116.209 24.6575 116.276 24.7277 116.412 24.7277H129.686C129.821 24.7277 129.929 24.7839 130.01 24.8962C130.119 24.9805 130.173 25.0928 130.173 25.2333V29.3194C130.173 29.4599 130.119 29.5862 130.01 29.6986C129.929 29.7828 129.821 29.8249 129.686 29.8249H110.972Z" fill="#D9D9D9"/>
<path d="M8.30844 22.5867C8.73725 22.9445 8.80338 23.5928 8.45614 24.0346C8.10888 24.4764 7.47976 24.5446 7.05095 24.1868L8.30844 22.5867ZM21.3642 5.97511C21.793 6.33289 21.8592 6.98109 21.5119 7.42293C21.1646 7.86475 20.5355 7.93288 20.1067 7.57511L21.3642 5.97511ZM5.05764 24.4587L7.20731 26.2521L5.94982 27.8522L3.80014 26.0586L5.05764 24.4587ZM23.3575 5.70327L21.2079 3.90967L22.4653 2.30969L24.615 4.10328L23.3575 5.70327ZM23.6187 8.26393C24.0468 7.71925 24.3029 7.38986 24.4576 7.1283C24.5287 7.00792 24.556 6.93752 24.5666 6.90109C24.5747 6.87319 24.5726 6.86616 24.5726 6.86616L26.5598 6.65096C26.6217 7.25831 26.42 7.76642 26.1641 8.19921C25.9234 8.60645 25.5641 9.06014 25.1716 9.55957L23.6187 8.26393ZM24.615 4.10328C25.0997 4.50772 25.5428 4.87452 25.8604 5.22131C26.198 5.58982 26.4978 6.0436 26.5598 6.65096L24.5726 6.86616C24.5726 6.86616 24.5733 6.85881 24.5597 6.83326C24.542 6.79992 24.5011 6.73687 24.4072 6.63438C24.2031 6.41167 23.8861 6.14434 23.3575 5.70327L24.615 4.10328ZM7.20731 26.2521C7.73594 26.6932 8.05564 26.9571 8.30951 27.1165C8.42633 27.1898 8.49468 27.2179 8.53001 27.2289C8.5571 27.2372 8.56393 27.235 8.56393 27.235L8.77279 29.2825C8.18331 29.3463 7.69018 29.1385 7.27014 28.8748C6.87488 28.6269 6.43456 28.2566 5.94982 27.8522L7.20731 26.2521ZM11.2454 27.2787C10.8529 27.7782 10.4969 28.2346 10.1603 28.5619C9.80269 28.9097 9.36226 29.2187 8.77279 29.2825L8.56393 27.235C8.56393 27.235 8.57105 27.2357 8.59584 27.2217C8.62822 27.2035 8.6894 27.1614 8.78887 27.0646C9.00502 26.8543 9.26448 26.5277 9.69256 25.983L11.2454 27.2787ZM4.79642 21.8979C4.36835 22.4426 4.1122 22.772 3.95759 23.0336C3.88644 23.1539 3.85911 23.2244 3.84855 23.2609C3.84045 23.2886 3.84259 23.2957 3.84259 23.2957L1.85535 23.5109C1.7934 22.9036 1.99519 22.3954 2.251 21.9627C2.49173 21.5554 2.85103 21.1018 3.24355 20.6023L4.79642 21.8979ZM3.80014 26.0586C3.31542 25.6541 2.87243 25.2874 2.55478 24.9406C2.21723 24.5721 1.9173 24.1182 1.85535 23.5109L3.84259 23.2957C3.84259 23.2957 3.84192 23.3031 3.85546 23.3286C3.87315 23.362 3.9141 23.425 4.00797 23.5275C4.21199 23.7502 4.52901 24.0176 5.05764 24.4587L3.80014 26.0586ZM17.1697 2.88316C17.5623 2.38373 17.9182 1.9273 18.2548 1.60001C18.6124 1.25222 19.0529 0.943198 19.6424 0.879369L19.8512 2.9269C19.8512 2.9269 19.8441 2.92621 19.8194 2.94016C19.7869 2.95838 19.7257 3.00058 19.6263 3.0973C19.4101 3.3075 19.1506 3.63415 18.7225 4.17882L17.1697 2.88316ZM21.2079 3.90967C20.6792 3.46861 20.3595 3.20469 20.1056 3.04539C19.9888 2.97208 19.9205 2.94392 19.8851 2.93304C19.8581 2.92469 19.8512 2.9269 19.8512 2.9269L19.6424 0.879369C20.2318 0.815539 20.725 1.02345 21.145 1.28702C21.5403 1.53506 21.9806 1.90526 22.4653 2.30969L21.2079 3.90967ZM12.0704 25.7255L13.1452 26.6224L11.8877 28.2223L10.8129 27.3256L12.0704 25.7255ZM16.6031 26.2479C17.0214 25.7157 17.2923 25.3694 17.4756 25.0876C17.651 24.8177 17.6885 24.6908 17.6999 24.6164L19.6734 24.9384C19.5979 25.4298 19.3885 25.8446 19.1355 26.2335C18.8903 26.6108 18.5511 27.0407 18.1559 27.5435L16.6031 26.2479ZM17.4971 21.0852C17.9851 21.4923 18.4037 21.8402 18.7196 22.1566C19.0456 22.4829 19.3341 22.8438 19.5071 23.3082L17.6417 24.046C17.6156 23.9757 17.5532 23.8596 17.3272 23.6332C17.091 23.3968 16.7562 23.1162 16.2397 22.6851L17.4971 21.0852ZM17.6999 24.6164C17.7294 24.4243 17.7093 24.2276 17.6417 24.046L19.5071 23.3082C19.7005 23.8272 19.7579 24.3894 19.6734 24.9384L17.6999 24.6164ZM18.1559 27.5435C17.7608 28.0464 17.4231 28.4775 17.116 28.8032C16.7993 29.1389 16.4491 29.4363 15.9984 29.6146L15.2823 27.6925C15.3505 27.6655 15.4632 27.6014 15.683 27.3684C15.9124 27.1252 16.1847 26.7801 16.6031 26.2479L18.1559 27.5435ZM13.1452 26.6224C13.6617 27.0533 13.9979 27.3326 14.2714 27.5213C14.5333 27.7021 14.6565 27.7407 14.7287 27.7525L14.416 29.786C13.9392 29.7081 13.5367 29.4923 13.1592 29.2317C12.793 28.9789 12.3757 28.6296 11.8877 28.2223L13.1452 26.6224ZM15.9984 29.6146C15.4947 29.8138 14.949 29.8729 14.416 29.786L14.7287 27.7525C14.9151 27.7829 15.106 27.7623 15.2823 27.6925L15.9984 29.6146ZM3.10824 14.9884C2.68994 15.5207 2.41898 15.8669 2.23581 16.1487C2.06029 16.4186 2.02286 16.5455 2.01142 16.6199L0.0378471 16.2979C0.113366 15.8065 0.322781 15.3918 0.575759 15.0028C0.821041 14.6255 1.1602 14.1956 1.55537 13.6928L3.10824 14.9884ZM2.21419 20.1513C1.72619 19.744 1.30769 19.3961 0.991641 19.0797C0.665698 18.7534 0.377165 18.3925 0.204161 17.9282L2.06962 17.1903C2.09581 17.2606 2.15803 17.3767 2.38417 17.6032C2.6202 17.8395 2.95512 18.1203 3.47168 18.5512L2.21419 20.1513ZM2.01142 16.6199C1.98189 16.812 2.00196 17.0087 2.06962 17.1903L0.204161 17.9282C0.0107931 17.4092 -0.0465617 16.8469 0.0378471 16.2979L2.01142 16.6199ZM1.55537 13.6928C1.95053 13.19 2.2882 12.7588 2.59532 12.4332C2.91206 12.0973 3.26222 11.8 3.71294 11.6218L4.42902 13.5438C4.36078 13.5708 4.24811 13.635 4.02835 13.8679C3.79901 14.1112 3.52655 14.4562 3.10824 14.9884L1.55537 13.6928ZM6.56611 14.6139C6.04954 14.183 5.71343 13.9039 5.44 13.715C5.17805 13.5343 5.05488 13.4956 4.98269 13.4838L5.29528 11.4504C5.77212 11.5282 6.17462 11.744 6.5522 12.0047C6.91831 12.2574 7.33562 12.6068 7.82361 13.014L6.56611 14.6139ZM3.71294 11.6218C4.21665 11.4226 4.76237 11.3635 5.29528 11.4504L4.98269 13.4838C4.79624 13.4535 4.60528 13.4742 4.42902 13.5438L3.71294 11.6218ZM25.1261 9.11388L26.2009 10.0107L24.9435 11.6107L23.8686 10.7139L25.1261 9.11388ZM26.8597 16.4691C26.4646 16.9719 26.1269 17.4031 25.8198 17.7287C25.5031 18.0645 25.1529 18.3618 24.7021 18.54L23.9861 16.6181C24.0544 16.5911 24.167 16.5269 24.3868 16.294C24.6162 16.0507 24.8887 15.7057 25.3069 15.1735L26.8597 16.4691ZM21.849 15.548C22.3657 15.9789 22.7017 16.258 22.9752 16.4469C23.2371 16.6276 23.3603 16.6663 23.4325 16.6781L23.1199 18.7114C22.643 18.6336 22.2405 18.4179 21.863 18.1572C21.4968 17.9045 21.0796 17.555 20.5916 17.1479L21.849 15.548ZM24.7021 18.54C24.1985 18.7394 23.6528 18.7985 23.1199 18.7114L23.4325 16.6781C23.6189 16.7084 23.8098 16.6877 23.9861 16.6181L24.7021 18.54ZM25.3069 15.1735C25.7252 14.6412 25.9962 14.2949 26.1794 14.0132C26.3549 13.7433 26.3923 13.6164 26.4037 13.542L28.3773 13.864C28.3018 14.3554 28.0923 14.7701 27.8394 15.1591C27.5941 15.5364 27.255 15.9663 26.8597 16.4691L25.3069 15.1735ZM26.2009 10.0107C26.689 10.4178 27.1075 10.7657 27.4236 11.0822C27.7494 11.4085 28.038 11.7693 28.211 12.2336L26.3456 12.9715C26.3194 12.9012 26.2572 12.7851 26.031 12.5587C25.795 12.3224 25.46 12.0416 24.9435 11.6107L26.2009 10.0107ZM26.4037 13.542C26.4333 13.3499 26.4132 13.1532 26.3456 12.9715L28.211 12.2336C28.4043 12.7527 28.4617 13.315 28.3773 13.864L26.4037 13.542ZM10.2592 2.61834C10.6544 2.11554 10.992 1.68434 11.2992 1.35871C11.6158 1.02288 11.966 0.725588 12.4168 0.547321L13.1329 2.46939C13.0646 2.49638 12.9519 2.56048 12.7322 2.79349C12.5028 3.03668 12.2304 3.38175 11.812 3.914L10.2592 2.61834ZM15.27 3.53953C14.7534 3.10852 14.4173 2.82935 14.1438 2.64062C13.8818 2.45978 13.7587 2.42121 13.6865 2.40943L13.9992 0.375961C14.4759 0.453786 14.8785 0.669554 15.256 0.930209C15.6221 1.18293 16.0394 1.53238 16.5275 1.93953L15.27 3.53953ZM12.4168 0.547321C12.9205 0.348101 13.4662 0.289006 13.9992 0.375961L13.6865 2.40943C13.5 2.379 13.3091 2.39968 13.1329 2.46939L12.4168 0.547321ZM11.812 3.914C11.3938 4.44623 11.1229 4.79255 10.9396 5.07427C10.7642 5.34416 10.7266 5.47107 10.7152 5.54546L8.74169 5.22338C8.81721 4.73207 9.02663 4.31736 9.2796 3.92833C9.52488 3.5511 9.86404 3.12113 10.2592 2.61834L11.812 3.914ZM10.9181 9.07676C10.43 8.66961 10.0115 8.32169 9.69549 8.00526C9.36954 7.67891 9.08102 7.31813 8.908 6.85373L10.7734 6.11593C10.7996 6.18623 10.8619 6.30233 11.088 6.52875C11.3241 6.76505 11.6589 7.04577 12.1755 7.47678L10.9181 9.07676ZM10.7152 5.54546C10.6858 5.73757 10.7059 5.93431 10.7734 6.11593L8.908 6.85373C8.71465 6.33473 8.65728 5.77246 8.74169 5.22338L10.7152 5.54546ZM3.47168 18.5512L8.30844 22.5867L7.05095 24.1868L2.21419 20.1513L3.47168 18.5512ZM16.5275 1.93953L21.3642 5.97511L20.1067 7.57511L15.27 3.53953L16.5275 1.93953ZM16.2397 22.6851L14.6273 21.3399L15.8849 19.74L17.4971 21.0852L16.2397 22.6851ZM14.4796 19.8922L18.8317 14.3548L20.3845 15.6505L16.0326 21.1877L14.4796 19.8922ZM20.5916 17.1479L18.9794 15.8027L20.2368 14.2027L21.849 15.548L20.5916 17.1479ZM14.6273 21.3399L8.17837 15.9592L9.43586 14.3592L15.8849 19.74L14.6273 21.3399ZM8.17837 15.9592L6.56611 14.6139L7.82361 13.014L9.43586 14.3592L8.17837 15.9592ZM13.9355 10.2698L9.58355 15.8071L8.03067 14.5114L12.3826 8.97412L13.9355 10.2698ZM18.9794 15.8027L12.5303 10.4219L13.7878 8.82195L20.2368 14.2027L18.9794 15.8027ZM12.5303 10.4219L10.9181 9.07676L12.1755 7.47678L13.7878 8.82195L12.5303 10.4219ZM23.8686 10.7139C23.143 10.1085 23.0311 9.01158 23.6187 8.26393L25.1716 9.55957C25.2785 9.42356 25.2582 9.22401 25.1261 9.11388L23.8686 10.7139ZM10.8129 27.3256C10.9449 27.4357 11.1386 27.4148 11.2454 27.2787L9.69256 25.983C10.2802 25.2354 11.3447 25.1201 12.0704 25.7255L10.8129 27.3256Z" fill="#D9D9D9"/>
</svg>
